<svg xmlns="http://www.w3.org/2000/svg" viewBox="0 0 264 280" fill="none">
  <g clip-path="url(#a)">
    <circle cx="132" cy="160" r="120" fill="#65C9FF" />
    <mask id="b" width="264" height="281" x="0" y="-1" maskUnits="userSpaceOnUse" style="mask-type:alpha">
      <path fill="#C4C4C4" fill-rule="evenodd"
        d="M264-1H0v161h12c0 66.27 53.73 120 120 120 66.27 0 120-53.73 120-120h12V-1Z" clip-rule="evenodd" />
    </mask>
    <g mask="url(#b)">
      <mask id="c" width="200" height="244" x="32" y="36" maskUnits="userSpaceOnUse" style="mask-type:alpha">
        <path fill="#FFDBB4"
          d="M132 36a56 56 0 0 1 56 56v6.17A12 12 0 0 1 198 110v14a12 12 0 0 1-10.3 11.88 56.04 56.04 0 0 1-31.7 44.73V199h4a72 72 0 0 1 72 72v9H32v-9a72 72 0 0 1 72-72h4v-18.39a56.04 56.04 0 0 1-31.7-44.73A12 12 0 0 1 66 124v-14a12 12 0 0 1 10-11.83V92a56 56 0 0 1 56-56Z" />
      </mask>
      <g mask="url(#c)">
        <path fill="#FFDBB4"
          d="M132 36a56 56 0 0 1 56 56v6.17A12 12 0 0 1 198 110v14a12 12 0 0 1-10.3 11.88 56.04 56.04 0 0 1-31.7 44.73V199h4a72 72 0 0 1 72 72v9H32v-9a72 72 0 0 1 72-72h4v-18.39a56.04 56.04 0 0 1-31.7-44.73A12 12 0 0 1 66 124v-14a12 12 0 0 1 10-11.83V92a56 56 0 0 1 56-56Z" />
        <path fill="#000" fill-opacity=".1" fill-rule="evenodd" d="M76 130a56 56 0 1 0 112 0v8a56 56 0 1 1-112 0v-8Z"
          clip-rule="evenodd" />
      </g>
      <mask id="d" width="200" height="97" x="32" y="183" maskUnits="userSpaceOnUse" style="mask-type:alpha">
        <path fill="#DCD2F5"
          d="M156 183c18.1 2.03 32 7.6 32 22v-.43a72.02 72.02 0 0 1 44 66.36v9H32v-9a72.02 72.02 0 0 1 44-66.36c.28-14.09 14.08-19.56 32-21.57v18.93a24 24 0 1 0 48 0V183Z" />
      </mask>
      <g mask="url(#d)">
        <path fill="#BD34FE"
          d="M156 183c18.1 2.03 32 7.6 32 22v-.43a72.02 72.02 0 0 1 44 66.36v9H32v-9a72.02 72.02 0 0 1 44-66.36c.28-14.09 14.08-19.56 32-21.57v18.93a24 24 0 1 0 48 0V183Z" />
        <path fill="#FFC31C" fill-rule="evenodd"
          d="M102 231.67v48.26h-7v-51.85a64.43 64.43 0 0 0 7 3.59Zm67-3.6v40.36a3.5 3.5 0 1 1-7 0v-36.76a64.68 64.68 0 0 0 7-3.6Z"
          clip-rule="evenodd" />
        <path fill="#000" fill-opacity=".2" fill-rule="evenodd"
          d="M173.04 182.65c15.05 2.85 25.46 8.52 25.46 19.59 0 19.7-33.04 35.69-66.5 35.69s-66.5-15.98-66.5-35.7c0-11.06 10.4-16.73 25.46-19.58C81.87 186 76 191.63 76 201.01c0 20.39 27.82 36.92 56 36.92s56-16.53 56-36.92c0-9.18-5.63-14.77-14.4-18.14l-.56-.22Z"
          clip-rule="evenodd" />
      </g>
      <mask id="e" width="38" height="19" x="113" y="147" maskUnits="userSpaceOnUse" style="mask-type:alpha">
        <path fill="#fff"
          d="M113.12 149.13a19 19 0 0 0 37.77-.09c.08-.77-.77-2.04-1.85-2.04H115.1c-1.08 0-2.08 1.18-1.97 2.13Z" />
      </mask>
      <g mask="url(#e)">
        <path fill="#0A0A0D" fill-opacity=".7"
          d="M113.12 149.13a19 19 0 0 0 37.77-.09c.08-.77-.77-2.04-1.85-2.04H115.1c-1.08 0-2.08 1.18-1.97 2.13Z" />
        <path fill="#fff" fill-rule="evenodd"
          d="M122 136h21a5 5 0 0 1 5 5v6a5 5 0 0 1-5 5h-21a5 5 0 0 1-5-5v-6a5 5 0 0 1 5-5Z" clip-rule="evenodd" />
        <path fill="#FF4F6D" d="M127 180a11 11 0 1 0 0-22 11 11 0 0 0 0 22Z" />
        <path fill="#FF4F6D" d="M137 180a11 11 0 1 0 0-22 11 11 0 0 0 0 22Z" />
      </g>
      <path fill="#000" fill-opacity=".16" fill-rule="evenodd" d="M120 130c0 4.42 5.37 8 12 8s12-3.58 12-8"
        clip-rule="evenodd" />
      <mask id="f" width="28" height="16" x="92" y="103" maskUnits="userSpaceOnUse" style="mask-type:alpha">
        <path fill="#fff"
          d="M106 117.05c9.61 0 14 4.45 14-2.49S113.73 103 106 103s-14 4.62-14 11.56 4.39 2.49 14 2.49Z" />
      </mask>
      <g mask="url(#f)">
        <path fill="#fff"
          d="M106 117.05c9.61 0 14 4.45 14-2.49S113.73 103 106 103s-14 4.62-14 11.56 4.39 2.49 14 2.49Z" />
        <path fill="#47CAFF" fill-opacity=".6" d="M106 119a6 6 0 1 0 0-12 6 6 0 0 0 0 12Z" />
      </g>
      <mask id="g" width="28" height="16" x="144" y="103" maskUnits="userSpaceOnUse" style="mask-type:alpha">
        <path fill="#fff"
          d="M158 117.05c9.61 0 14 4.45 14-2.49S165.73 103 158 103s-14 4.62-14 11.56 4.39 2.49 14 2.49Z" />
      </mask>
      <g mask="url(#g)">
        <path fill="#fff"
          d="M158 117.05c9.61 0 14 4.45 14-2.49S165.73 103 158 103s-14 4.62-14 11.56 4.39 2.49 14 2.49Z" />
        <path fill="#47CAFF" fill-opacity=".6" d="M158 119a6 6 0 1 0 0-12 6 6 0 0 0 0 12Z" />
      </g>
      <path fill="#9A6913" fill-opacity=".8"
        d="M91.63 99.16c3.92-5.51 14.65-8.6 23.9-6.33a2 2 0 1 0 .95-3.88c-10.74-2.64-23.17.94-28.11 7.9a2 2 0 0 0 3.26 2.3ZM172.37 99.16c-3.91-5.51-14.65-8.6-23.9-6.33a2 2 0 0 1-.95-3.88c10.74-2.64 23.17.94 28.11 7.9a2 2 0 0 1-3.26 2.3Z" />
      <path fill="#FFC31C"
        d="M183.68 38.95c5.4-4.95 6.7-14.99 3.64-21.5-3.77-8-11.42-9-18.75-5.48-6.9 3.31-13.06 4.42-20.62 2.81-7.26-1.54-14.14-4.26-21.65-4.7-12.32-.74-24.3 3.83-32.7 13.05a35.75 35.75 0 0 0-4.11 5.8c-.98 1.63-2.08 3.38-2.5 5.26-.2.9.18 3.1-.27 3.83-.48.8-2.3 1.52-3.07 2.1a25.02 25.02 0 0 0-4.18 4.05c-2.66 3.22-4.13 6.59-5.37 10.57-4.1 13.25-4.45 29 .86 42 .7 1.74 2.9 5.36 4.18 1.64.26-.73-.33-3.19-.33-3.93 0-2.72 1.5-20.73 8.05-30.82 2.13-3.28 11.97-15.58 13.98-15.68 1.07 1.7 11.88 12.51 39.94 11.24 12.66-.57 22.4-6.26 24.74-8.72 1.03 5.53 13 13.81 14.82 17.22 5.26 9.85 6.43 30.3 8.44 30.27 2.01-.04 3.45-5.24 3.87-6.23 3.07-7.38 3.6-16.64 3.26-24.56-.42-10.2-4.63-21.23-12.23-28.22Z" />
      <g fill="#0A0A0D" filter="url(#h)">
        <path
          d="M102.47 92c21.71 0 23.53 10.13 23.53 20.5 0 12.07-10.28 20.5-25 20.5h-2.76C84.31 133 76 125.34 76 112.5 76 102.13 77.82 92 99.53 92h2.94Zm.14 6H99.4c-17.45 0-19.2 5.54-19.37 12.96l-.01.5-.01 1.27v.77c0 7.07 3.12 15.5 17.97 15.5H101c12.36 0 21-6.37 21-15.5v-.77l-.01-1.27v-.5C121.8 103.54 120.05 98 102.6 98ZM164.47 92c21.71 0 23.53 10.13 23.53 20.5 0 12.07-10.28 20.5-25 20.5h-2.76c-13.93 0-22.24-7.66-22.24-20.5 0-10.37 1.82-20.5 23.53-20.5h2.94Zm.15 6h-3.24c-17.44 0-19.19 5.54-19.36 12.96l-.01.5v1.27l-.01.77c0 7.07 3.12 15.5 17.97 15.5H163c12.37 0 21-6.37 21-15.5v-.77l-.01-1.27v-.5C183.8 103.54 182.05 98 164.6 98Z" />
        <path
          d="M69.95 97.77c.7-.67 8.26-5.77 29.55-5.77 17.85 0 21.63 1.85 27.35 4.65l.42.2c.4.15 2.43.84 4.8.92a17 17 0 0 0 4.57-.87c6.53-3.18 12.92-4.9 27.86-4.9 21.29 0 28.85 5.1 29.54 5.77a2.92 2.92 0 0 1 2.96 2.89v2.88c0 1.6-1.32 2.89-2.96 2.89 0 0-6.9 0-6.9 2.88 0 2.89-1.96-4.17-1.96-5.77v-2.8c-3.6-1.39-10.05-3.95-20.68-3.95-11.84 0-17.74 2.1-22.8 4.18l.06.14v1.98l-2.22 5.35-2.74-1.08c-.24-.1-.77-.27-1.5-.45-2.04-.5-4.14-.66-6-.28-.68.14-1.3.35-1.89.64l-2.64 1.29-2.64-5.16.11-2.3.09-.2c-4.37-2.03-8.4-4.11-22.83-4.11-10.63 0-17.08 2.56-20.68 3.94v2.81c0 1.6-2.96 8.66-2.96 5.77 0-2.88-5.9-2.88-5.9-2.88a2.92 2.92 0 0 1-2.96-2.89v-2.88c0-1.6 1.32-2.89 2.95-2.89Z" />
      </g>
    </g>
  </g>
  <defs>
    <clipPath id="a">
      <path fill="#fff" d="M0 0h264v280H0z" />
    </clipPath>
    <filter id="h" width="130" height="43" x="67" y="92" color-interpolation-filters="sRGB"
      filterUnits="userSpaceOnUse">
      <feFlood flood-opacity="0" result="BackgroundImageFix" />
      <feColorMatrix in="SourceAlpha" result="hardAlpha" values="0 0 0 0 0 0 0 0 0 0 0 0 0 0 0 0 0 0 127 0" />
      <feOffset dy="2" />
      <feComposite in2="hardAlpha" operator="out" />
      <feColorMatrix values="0 0 0 0 0 0 0 0 0 0 0 0 0 0 0 0 0 0 0.1 0" />
      <feBlend in2="BackgroundImageFix" result="effect1_dropShadow_203_352" />
      <feBlend in="SourceGraphic" in2="effect1_dropShadow_203_352" result="shape" />
    </filter>
  </defs>
</svg>