<svg width="94" height="10" viewBox="0 0 94 10" fill="none" xmlns="http://www.w3.org/2000/svg">
<path d="M2.51367 2.21328C3.07513 2.21328 3.49193 2.33932 3.76406 2.59141C4.0362 2.84349 4.17227 3.24596 4.17227 3.79883V7H3.65234L3.51484 6.30391H3.48047C3.3487 6.47578 3.2112 6.62044 3.06797 6.73789C2.92474 6.85247 2.75859 6.93984 2.56953 7C2.38333 7.05729 2.15417 7.08594 1.88203 7.08594C1.59557 7.08594 1.34063 7.03581 1.11719 6.93555C0.896615 6.83529 0.721875 6.68346 0.592969 6.48008C0.466927 6.27669 0.403906 6.01888 0.403906 5.70664C0.403906 5.23685 0.590104 4.87591 0.9625 4.62383C1.3349 4.37174 1.90208 4.23424 2.66406 4.21133L3.47617 4.17695V3.88906C3.47617 3.48229 3.3888 3.19727 3.21406 3.03398C3.03932 2.8707 2.79297 2.78906 2.475 2.78906C2.22865 2.78906 1.99375 2.82487 1.77031 2.89648C1.54688 2.9681 1.3349 3.0526 1.13438 3.15L0.915234 2.60859C1.12721 2.49974 1.3707 2.40664 1.6457 2.3293C1.9207 2.25195 2.21003 2.21328 2.51367 2.21328ZM3.46758 4.67969L2.75 4.70977C2.16276 4.73268 1.74883 4.82865 1.5082 4.99766C1.26758 5.16667 1.14727 5.40586 1.14727 5.71523C1.14727 5.98451 1.22891 6.18359 1.39219 6.3125C1.55547 6.44141 1.77174 6.50586 2.04102 6.50586C2.45924 6.50586 2.80156 6.38984 3.06797 6.15781C3.33438 5.92578 3.46758 5.57773 3.46758 5.11367V4.67969ZM7.87188 2.20469C8.43047 2.20469 8.853 2.34219 9.13945 2.61719C9.42591 2.88932 9.56914 3.3276 9.56914 3.93203V7H8.86445V3.9793C8.86445 3.58685 8.77422 3.29323 8.59375 3.09844C8.41615 2.90365 8.14258 2.80625 7.77305 2.80625C7.25169 2.80625 6.88503 2.95378 6.67305 3.24883C6.46107 3.54388 6.35508 3.97214 6.35508 4.53359V7H5.6418V2.29062H6.21758L6.325 2.96953H6.36367C6.46393 2.80339 6.59141 2.66445 6.74609 2.55273C6.90078 2.43815 7.07409 2.35221 7.26602 2.29492C7.45794 2.23477 7.6599 2.20469 7.87188 2.20469ZM12.7145 7.08594C12.1186 7.08594 11.646 6.88255 11.2965 6.47578C10.9499 6.06901 10.7766 5.46458 10.7766 4.6625C10.7766 3.85182 10.9542 3.24023 11.3094 2.82773C11.6646 2.41237 12.1372 2.20469 12.7273 2.20469C12.9766 2.20469 13.1943 2.23763 13.3805 2.30352C13.5667 2.3694 13.7271 2.4582 13.8617 2.56992C13.9964 2.67878 14.1095 2.80339 14.2012 2.94375H14.2527C14.2413 2.85495 14.2298 2.7332 14.2184 2.57852C14.2069 2.42383 14.2012 2.29779 14.2012 2.20039V0.314062H14.9145V7H14.3387L14.2312 6.32969H14.2012C14.1124 6.47005 13.9992 6.59753 13.8617 6.71211C13.7271 6.82669 13.5652 6.91836 13.3762 6.98711C13.19 7.05299 12.9694 7.08594 12.7145 7.08594ZM12.8262 6.49297C13.3303 6.49297 13.687 6.34974 13.8961 6.06328C14.1052 5.77682 14.2098 5.35143 14.2098 4.78711V4.6582C14.2098 4.05951 14.1095 3.59974 13.909 3.27891C13.7113 2.95807 13.3504 2.79766 12.8262 2.79766C12.3879 2.79766 12.0599 2.96667 11.8422 3.30469C11.6245 3.63984 11.5156 4.09818 11.5156 4.67969C11.5156 5.25833 11.623 5.70521 11.8379 6.02031C12.0556 6.33542 12.385 6.49297 12.8262 6.49297ZM18.5668 2.20469C18.6613 2.20469 18.7602 2.21042 18.8633 2.22187C18.9664 2.23047 19.0581 2.24336 19.1383 2.26055L19.048 2.92227C18.9707 2.90221 18.8848 2.88646 18.7902 2.875C18.6957 2.86354 18.6069 2.85781 18.5238 2.85781C18.3348 2.85781 18.1557 2.89648 17.9867 2.97383C17.8206 3.04831 17.6745 3.15716 17.5484 3.30039C17.4224 3.44076 17.3236 3.6112 17.252 3.81172C17.1803 4.00937 17.1445 4.22995 17.1445 4.47344V7H16.427V2.29062H17.0199L17.0973 3.15859H17.1273C17.2247 2.98385 17.3422 2.82487 17.4797 2.68164C17.6172 2.53555 17.7762 2.41953 17.9566 2.33359C18.14 2.24766 18.3434 2.20469 18.5668 2.20469ZM21.841 2.20469C22.2421 2.20469 22.5858 2.29349 22.8723 2.47109C23.1587 2.6487 23.3779 2.89792 23.5297 3.21875C23.6815 3.53672 23.7574 3.90911 23.7574 4.33594V4.77852H20.5047C20.5133 5.33138 20.6508 5.75247 20.9172 6.0418C21.1836 6.33112 21.5589 6.47578 22.043 6.47578C22.3409 6.47578 22.6044 6.44857 22.8336 6.39414C23.0628 6.33971 23.3005 6.25951 23.5469 6.15352V6.78086C23.3091 6.88685 23.0728 6.96419 22.8379 7.01289C22.6059 7.06159 22.3309 7.08594 22.0129 7.08594C21.5603 7.08594 21.165 6.99427 20.827 6.81094C20.4918 6.62474 20.2311 6.3526 20.0449 5.99453C19.8587 5.63646 19.7656 5.19818 19.7656 4.67969C19.7656 4.17266 19.8501 3.73437 20.0191 3.36484C20.191 2.99245 20.4316 2.70599 20.741 2.50547C21.0533 2.30495 21.4199 2.20469 21.841 2.20469ZM21.8324 2.78906C21.4514 2.78906 21.1478 2.91367 20.9215 3.16289C20.6952 3.41211 20.5605 3.76016 20.5176 4.20703H23.0098C23.0069 3.9263 22.9625 3.67995 22.8766 3.46797C22.7935 3.25312 22.666 3.08698 22.4941 2.96953C22.3223 2.84922 22.1017 2.78906 21.8324 2.78906ZM28.802 6.99141L27.9641 4.25C27.9268 4.13255 27.891 4.01797 27.8566 3.90625C27.8251 3.79167 27.7951 3.68281 27.7664 3.57969C27.7406 3.4737 27.7163 3.3763 27.6934 3.2875C27.6733 3.19583 27.6561 3.11706 27.6418 3.05117H27.6117C27.6003 3.11706 27.5845 3.19583 27.5645 3.2875C27.5444 3.3763 27.5201 3.4737 27.4914 3.57969C27.4656 3.68568 27.437 3.7974 27.4055 3.91484C27.374 4.02943 27.3382 4.14544 27.298 4.26289L26.4215 6.99141H25.618L24.3203 2.28203H25.0594L25.7383 4.88164C25.7841 5.05352 25.8271 5.22396 25.8672 5.39297C25.9102 5.55911 25.946 5.71667 25.9746 5.86562C26.0061 6.01172 26.029 6.13919 26.0434 6.24805H26.0777C26.0949 6.17643 26.1135 6.09049 26.1336 5.99023C26.1565 5.88997 26.1809 5.78398 26.2066 5.67227C26.2353 5.55768 26.2654 5.44453 26.2969 5.33281C26.3284 5.21823 26.3599 5.11081 26.3914 5.01055L27.2594 2.28203H28.0285L28.8664 5.00625C28.9094 5.14375 28.9509 5.28698 28.991 5.43594C29.034 5.5849 29.0727 5.72956 29.107 5.86992C29.1414 6.00742 29.1658 6.1306 29.1801 6.23945H29.2145C29.2259 6.14206 29.2474 6.02174 29.2789 5.87852C29.3104 5.73529 29.3462 5.57773 29.3863 5.40586C29.4293 5.23398 29.4737 5.05924 29.5195 4.88164L30.207 2.28203H30.9332L29.6313 6.99141H28.802ZM38.427 3.86328C38.427 4.13542 38.3954 4.40182 38.3324 4.6625C38.2723 4.92031 38.1792 5.15378 38.0531 5.36289C37.9271 5.56914 37.7695 5.73385 37.5805 5.85703C37.3943 5.98021 37.1737 6.0418 36.9188 6.0418C36.6523 6.0418 36.4404 5.96445 36.2828 5.80977C36.1253 5.65508 36.0307 5.47174 35.9992 5.25977H35.9605C35.8517 5.48607 35.6913 5.6737 35.4793 5.82266C35.2702 5.96875 35.0124 6.0418 34.7059 6.0418C34.259 6.0418 33.9138 5.89427 33.6703 5.59922C33.4297 5.3013 33.3094 4.90599 33.3094 4.41328C33.3094 4.02943 33.3853 3.68997 33.5371 3.39492C33.6918 3.09701 33.9081 2.86354 34.1859 2.69453C34.4667 2.52266 34.7975 2.43672 35.1785 2.43672C35.4335 2.43672 35.6813 2.4582 35.9219 2.50117C36.1625 2.54414 36.3544 2.59141 36.4977 2.64297L36.4117 4.37461C36.4089 4.4806 36.406 4.56224 36.4031 4.61953C36.4003 4.67396 36.3988 4.71693 36.3988 4.74844C36.3988 5.05781 36.4533 5.26693 36.5621 5.37578C36.6738 5.48177 36.8085 5.53477 36.966 5.53477C37.1579 5.53477 37.3184 5.46029 37.4473 5.31133C37.579 5.15951 37.6793 4.95755 37.748 4.70547C37.8168 4.45052 37.8512 4.16836 37.8512 3.85898C37.8512 3.31185 37.7409 2.84492 37.5203 2.4582C37.2997 2.07148 36.9947 1.77643 36.6051 1.57305C36.2184 1.36966 35.7729 1.26797 35.2688 1.26797C34.7674 1.26797 34.322 1.34674 33.9324 1.5043C33.5457 1.66185 33.2177 1.88529 32.9484 2.17461C32.682 2.46107 32.4801 2.80195 32.3426 3.19727C32.2051 3.59258 32.1363 4.02943 32.1363 4.50781C32.1363 5.09219 32.2395 5.58919 32.4457 5.99883C32.6548 6.40846 32.9599 6.7207 33.3609 6.93555C33.7648 7.14753 34.2561 7.25352 34.8348 7.25352C35.1842 7.25352 35.5208 7.21484 35.8445 7.1375C36.1682 7.06016 36.4576 6.97279 36.7125 6.87539V7.43398C36.4604 7.53997 36.1783 7.62591 35.866 7.6918C35.5538 7.76055 35.21 7.79492 34.8348 7.79492C34.1444 7.79492 33.5543 7.66458 33.0645 7.40391C32.5746 7.14609 32.1994 6.7737 31.9387 6.28672C31.678 5.79974 31.5477 5.21536 31.5477 4.53359C31.5477 3.98073 31.6322 3.47227 31.8012 3.0082C31.973 2.54414 32.2194 2.14167 32.5402 1.80078C32.8639 1.4599 33.2549 1.19635 33.7133 1.01016C34.1745 0.821094 34.693 0.726562 35.2688 0.726562C35.8846 0.726562 36.4289 0.854036 36.9016 1.10898C37.3771 1.36107 37.7495 1.72201 38.0188 2.1918C38.2909 2.65872 38.427 3.21589 38.427 3.86328ZM33.9496 4.43047C33.9496 4.81146 34.0255 5.09076 34.1773 5.26836C34.3292 5.44596 34.5397 5.53477 34.809 5.53477C35.1413 5.53477 35.3848 5.41016 35.5395 5.16094C35.697 4.91172 35.7872 4.58229 35.8102 4.17266L35.8617 3.05117C35.7786 3.02539 35.677 3.00391 35.5566 2.98672C35.4392 2.96667 35.316 2.95664 35.1871 2.95664C34.8921 2.95664 34.6529 3.02682 34.4695 3.16719C34.2891 3.30755 34.1573 3.48945 34.0742 3.71289C33.9911 3.93633 33.9496 4.17552 33.9496 4.43047ZM41.4434 2.21328C42.0048 2.21328 42.4216 2.33932 42.6938 2.59141C42.9659 2.84349 43.102 3.24596 43.102 3.79883V7H42.582L42.4445 6.30391H42.4102C42.2784 6.47578 42.1409 6.62044 41.9977 6.73789C41.8544 6.85247 41.6883 6.93984 41.4992 7C41.313 7.05729 41.0839 7.08594 40.8117 7.08594C40.5253 7.08594 40.2703 7.03581 40.0469 6.93555C39.8263 6.83529 39.6516 6.68346 39.5227 6.48008C39.3966 6.27669 39.3336 6.01888 39.3336 5.70664C39.3336 5.23685 39.5198 4.87591 39.8922 4.62383C40.2646 4.37174 40.8318 4.23424 41.5938 4.21133L42.4059 4.17695V3.88906C42.4059 3.48229 42.3185 3.19727 42.1438 3.03398C41.969 2.8707 41.7227 2.78906 41.4047 2.78906C41.1583 2.78906 40.9234 2.82487 40.7 2.89648C40.4766 2.9681 40.2646 3.0526 40.0641 3.15L39.8449 2.60859C40.0569 2.49974 40.3004 2.40664 40.5754 2.3293C40.8504 2.25195 41.1397 2.21328 41.4434 2.21328ZM42.3973 4.67969L41.6797 4.70977C41.0924 4.73268 40.6785 4.82865 40.4379 4.99766C40.1973 5.16667 40.077 5.40586 40.077 5.71523C40.077 5.98451 40.1586 6.18359 40.3219 6.3125C40.4852 6.44141 40.7014 6.50586 40.9707 6.50586C41.3889 6.50586 41.7313 6.38984 41.9977 6.15781C42.2641 5.92578 42.3973 5.57773 42.3973 5.11367V4.67969ZM44.0043 9.11406C43.8582 9.11406 43.7307 9.1026 43.6219 9.07969C43.513 9.05964 43.4185 9.03529 43.3383 9.00664V8.42656C43.4271 8.45521 43.5173 8.47669 43.609 8.49102C43.7007 8.5082 43.8038 8.5168 43.9184 8.5168C44.1132 8.5168 44.2707 8.46237 44.391 8.35352C44.5113 8.24466 44.5715 8.04701 44.5715 7.76055V2.29062H45.2848V7.74336C45.2848 8.02982 45.2389 8.27474 45.1473 8.47813C45.0556 8.68438 44.9152 8.84193 44.7262 8.95078C44.5371 9.05964 44.2965 9.11406 44.0043 9.11406ZM44.507 0.997265C44.507 0.836849 44.5471 0.719401 44.6273 0.644922C44.7104 0.567578 44.8135 0.528906 44.9367 0.528906C45.0542 0.528906 45.1544 0.567578 45.2375 0.644922C45.3234 0.719401 45.3664 0.836849 45.3664 0.997265C45.3664 1.15482 45.3234 1.27227 45.2375 1.34961C45.1544 1.42695 45.0542 1.46562 44.9367 1.46562C44.8135 1.46562 44.7104 1.42695 44.6273 1.34961C44.5471 1.27227 44.507 1.15482 44.507 0.997265ZM47.5105 0.314062V2.31211C47.5105 2.42669 47.5077 2.54271 47.502 2.66016C47.4962 2.77474 47.4862 2.88073 47.4719 2.97812H47.5191C47.6165 2.81198 47.7397 2.67305 47.8887 2.56133C48.0405 2.44674 48.2124 2.36081 48.4043 2.30352C48.5962 2.24336 48.7996 2.21328 49.0145 2.21328C49.3926 2.21328 49.7077 2.27344 49.9598 2.39375C50.2147 2.51406 50.4052 2.70026 50.5313 2.95234C50.6602 3.20443 50.7246 3.53099 50.7246 3.93203V7H50.0199V3.9793C50.0199 3.58685 49.9297 3.29323 49.7492 3.09844C49.5716 2.90365 49.298 2.80625 48.9285 2.80625C48.579 2.80625 48.2997 2.87357 48.0906 3.0082C47.8844 3.13997 47.7354 3.33477 47.6438 3.59258C47.555 3.85039 47.5105 4.16549 47.5105 4.53789V7H46.7973V0.314062H47.5105ZM56.0828 2.29062V7H55.4984L55.3953 6.33828H55.3566C55.2592 6.50156 55.1332 6.63906 54.9785 6.75078C54.8238 6.8625 54.6491 6.94557 54.4543 7C54.2624 7.05729 54.0576 7.08594 53.8398 7.08594C53.4674 7.08594 53.1552 7.02578 52.9031 6.90547C52.651 6.78516 52.4605 6.59896 52.3316 6.34687C52.2056 6.09479 52.1426 5.77109 52.1426 5.37578V2.29062H52.8645V5.32422C52.8645 5.71667 52.9533 6.01029 53.1309 6.20508C53.3085 6.39701 53.5792 6.49297 53.943 6.49297C54.2924 6.49297 54.5703 6.42708 54.7766 6.29531C54.9857 6.16354 55.1361 5.97018 55.2277 5.71523C55.3194 5.45742 55.3652 5.14232 55.3652 4.76992V2.29062H56.0828ZM58.9059 9.11406C58.2871 9.11406 57.8102 8.99805 57.475 8.76602C57.1398 8.53685 56.9723 8.21458 56.9723 7.79922C56.9723 7.50417 57.0654 7.25208 57.2516 7.04297C57.4406 6.83385 57.7013 6.69492 58.0336 6.62617C57.9104 6.56888 57.8044 6.48294 57.7156 6.36836C57.6297 6.25378 57.5867 6.12201 57.5867 5.97305C57.5867 5.80117 57.634 5.65078 57.7285 5.52187C57.8259 5.3901 57.9734 5.26406 58.1711 5.14375C57.9247 5.04349 57.7242 4.87448 57.5695 4.63672C57.4177 4.39609 57.3418 4.1168 57.3418 3.79883C57.3418 3.46081 57.412 3.17292 57.5523 2.93516C57.6927 2.69453 57.8961 2.5112 58.1625 2.38516C58.4289 2.25911 58.7512 2.19609 59.1293 2.19609C59.2124 2.19609 59.2954 2.20039 59.3785 2.20898C59.4645 2.21471 59.5461 2.22474 59.6234 2.23906C59.7008 2.25052 59.7681 2.26484 59.8254 2.28203H61.441V2.7418L60.573 2.84922C60.659 2.96094 60.7306 3.09557 60.7879 3.25312C60.8452 3.41068 60.8738 3.58542 60.8738 3.77734C60.8738 4.24714 60.7148 4.62096 60.3969 4.89883C60.0789 5.17383 59.6421 5.31133 59.0863 5.31133C58.9546 5.31133 58.8199 5.29987 58.6824 5.27695C58.5421 5.3543 58.4346 5.44023 58.3602 5.53477C58.2885 5.6293 58.2527 5.73815 58.2527 5.86133C58.2527 5.95299 58.2799 6.02604 58.3344 6.08047C58.3917 6.1349 58.4733 6.175 58.5793 6.20078C58.6853 6.2237 58.8128 6.23516 58.9617 6.23516H59.791C60.3038 6.23516 60.6962 6.34258 60.9684 6.55742C61.2434 6.77227 61.3809 7.08594 61.3809 7.49844C61.3809 8.01979 61.1689 8.4194 60.7449 8.69727C60.321 8.97513 59.7079 9.11406 58.9059 9.11406ZM58.9273 8.55547C59.3169 8.55547 59.6392 8.51536 59.8941 8.43516C60.152 8.35781 60.3439 8.24466 60.4699 8.0957C60.5988 7.94961 60.6633 7.77487 60.6633 7.57148C60.6633 7.38242 60.6203 7.23919 60.5344 7.1418C60.4484 7.04727 60.3224 6.98424 60.1562 6.95273C59.9901 6.91836 59.7867 6.90117 59.5461 6.90117H58.7297C58.5177 6.90117 58.3329 6.93411 58.1754 7C58.0178 7.06589 57.8961 7.16328 57.8102 7.29219C57.7271 7.42109 57.6855 7.58151 57.6855 7.77344C57.6855 8.02839 57.793 8.22174 58.0078 8.35352C58.2227 8.48815 58.5292 8.55547 58.9273 8.55547ZM59.1121 4.79141C59.453 4.79141 59.7094 4.70547 59.8812 4.53359C60.0531 4.36172 60.1391 4.11107 60.1391 3.78164C60.1391 3.4293 60.0517 3.16576 59.877 2.99102C59.7022 2.81341 59.4444 2.72461 59.1035 2.72461C58.777 2.72461 58.5249 2.81628 58.3473 2.99961C58.1725 3.18008 58.0852 3.44505 58.0852 3.79453C58.0852 4.11536 58.174 4.36172 58.3516 4.53359C58.5292 4.70547 58.7827 4.79141 59.1121 4.79141ZM63.0824 0.314062V2.31211C63.0824 2.42669 63.0796 2.54271 63.0738 2.66016C63.0681 2.77474 63.0581 2.88073 63.0438 2.97812H63.091C63.1884 2.81198 63.3116 2.67305 63.4605 2.56133C63.6124 2.44674 63.7842 2.36081 63.9762 2.30352C64.1681 2.24336 64.3715 2.21328 64.5863 2.21328C64.9645 2.21328 65.2796 2.27344 65.5316 2.39375C65.7866 2.51406 65.9771 2.70026 66.1031 2.95234C66.232 3.20443 66.2965 3.53099 66.2965 3.93203V7H65.5918V3.9793C65.5918 3.58685 65.5016 3.29323 65.3211 3.09844C65.1435 2.90365 64.8699 2.80625 64.5004 2.80625C64.1509 2.80625 63.8716 2.87357 63.6625 3.0082C63.4563 3.13997 63.3073 3.33477 63.2156 3.59258C63.1268 3.85039 63.0824 4.16549 63.0824 4.53789V7H62.3691V0.314062H63.0824ZM69.5793 2.20469C69.9803 2.20469 70.3241 2.29349 70.6105 2.47109C70.897 2.6487 71.1161 2.89792 71.268 3.21875C71.4198 3.53672 71.4957 3.90911 71.4957 4.33594V4.77852H68.243C68.2516 5.33138 68.3891 5.75247 68.6555 6.0418C68.9219 6.33112 69.2971 6.47578 69.7812 6.47578C70.0792 6.47578 70.3427 6.44857 70.5719 6.39414C70.801 6.33971 71.0388 6.25951 71.2852 6.15352V6.78086C71.0474 6.88685 70.8111 6.96419 70.5762 7.01289C70.3441 7.06159 70.0691 7.08594 69.7512 7.08594C69.2986 7.08594 68.9033 6.99427 68.5652 6.81094C68.2301 6.62474 67.9694 6.3526 67.7832 5.99453C67.597 5.63646 67.5039 5.19818 67.5039 4.67969C67.5039 4.17266 67.5884 3.73437 67.7574 3.36484C67.9293 2.99245 68.1699 2.70599 68.4793 2.50547C68.7915 2.30495 69.1582 2.20469 69.5793 2.20469ZM69.5707 2.78906C69.1897 2.78906 68.8861 2.91367 68.6598 3.16289C68.4335 3.41211 68.2988 3.76016 68.2559 4.20703H70.748C70.7452 3.9263 70.7008 3.67995 70.6148 3.46797C70.5318 3.25312 70.4043 3.08698 70.2324 2.96953C70.0605 2.84922 69.84 2.78906 69.5707 2.78906ZM75.7539 5.71094C75.7539 6.01172 75.678 6.26523 75.5262 6.47148C75.3772 6.67487 75.1624 6.82812 74.8816 6.93125C74.6038 7.03438 74.2715 7.08594 73.8848 7.08594C73.5553 7.08594 73.2703 7.06016 73.0297 7.00859C72.7891 6.95703 72.5785 6.88398 72.398 6.78945V6.13203C72.59 6.22656 72.8191 6.3125 73.0855 6.38984C73.352 6.46719 73.6241 6.50586 73.902 6.50586C74.3087 6.50586 74.6038 6.43997 74.7871 6.3082C74.9704 6.17643 75.0621 5.9974 75.0621 5.77109C75.0621 5.64219 75.0249 5.52904 74.9504 5.43164C74.8788 5.33138 74.757 5.23542 74.5852 5.14375C74.4133 5.04922 74.1755 4.94609 73.8719 4.83437C73.5711 4.71979 73.3104 4.60664 73.0898 4.49492C72.8721 4.38034 72.7031 4.24141 72.5828 4.07812C72.4654 3.91484 72.4066 3.70286 72.4066 3.44219C72.4066 3.04401 72.5671 2.73893 72.8879 2.52695C73.2116 2.31211 73.6355 2.20469 74.1598 2.20469C74.4434 2.20469 74.7083 2.23333 74.9547 2.29062C75.2039 2.34505 75.4359 2.41953 75.6508 2.51406L75.4102 3.08555C75.2154 3.00247 75.0077 2.93229 74.7871 2.875C74.5665 2.81771 74.3417 2.78906 74.1125 2.78906C73.7831 2.78906 73.5296 2.84349 73.352 2.95234C73.1772 3.0612 73.0898 3.21016 73.0898 3.39922C73.0898 3.54531 73.1299 3.66562 73.2102 3.76016C73.2932 3.85469 73.425 3.94349 73.6055 4.02656C73.7859 4.10964 74.0237 4.20703 74.3187 4.31875C74.6138 4.4276 74.8687 4.54076 75.0836 4.6582C75.2984 4.77279 75.4631 4.91315 75.5777 5.0793C75.6952 5.24258 75.7539 5.45312 75.7539 5.71094ZM76.7938 6.55312C76.7938 6.3526 76.8425 6.21081 76.9398 6.12773C77.0372 6.0418 77.1561 5.99883 77.2965 5.99883C77.4426 5.99883 77.5658 6.0418 77.666 6.12773C77.7663 6.21081 77.8164 6.3526 77.8164 6.55312C77.8164 6.75078 77.7663 6.89544 77.666 6.98711C77.5658 7.07591 77.4426 7.12031 77.2965 7.12031C77.1561 7.12031 77.0372 7.07591 76.9398 6.98711C76.8425 6.89544 76.7938 6.75078 76.7938 6.55312ZM80.8887 7.08594C80.2928 7.08594 79.8202 6.88255 79.4707 6.47578C79.1241 6.06901 78.9508 5.46458 78.9508 4.6625C78.9508 3.85182 79.1284 3.24023 79.4836 2.82773C79.8388 2.41237 80.3115 2.20469 80.9016 2.20469C81.1508 2.20469 81.3685 2.23763 81.5547 2.30352C81.7409 2.3694 81.9013 2.4582 82.0359 2.56992C82.1706 2.67878 82.2837 2.80339 82.3754 2.94375H82.427C82.4155 2.85495 82.404 2.7332 82.3926 2.57852C82.3811 2.42383 82.3754 2.29779 82.3754 2.20039V0.314062H83.0887V7H82.5129L82.4055 6.32969H82.3754C82.2866 6.47005 82.1734 6.59753 82.0359 6.71211C81.9013 6.82669 81.7395 6.91836 81.5504 6.98711C81.3642 7.05299 81.1436 7.08594 80.8887 7.08594ZM81.0004 6.49297C81.5046 6.49297 81.8612 6.34974 82.0703 6.06328C82.2794 5.77682 82.384 5.35143 82.384 4.78711V4.6582C82.384 4.05951 82.2837 3.59974 82.0832 3.27891C81.8855 2.95807 81.5246 2.79766 81.0004 2.79766C80.5621 2.79766 80.2341 2.96667 80.0164 3.30469C79.7987 3.63984 79.6898 4.09818 79.6898 4.67969C79.6898 5.25833 79.7973 5.70521 80.0121 6.02031C80.2298 6.33542 80.5592 6.49297 81.0004 6.49297ZM86.4145 2.20469C86.8155 2.20469 87.1592 2.29349 87.4457 2.47109C87.7322 2.6487 87.9513 2.89792 88.1031 3.21875C88.2549 3.53672 88.3309 3.90911 88.3309 4.33594V4.77852H85.0781C85.0867 5.33138 85.2242 5.75247 85.4906 6.0418C85.757 6.33112 86.1323 6.47578 86.6164 6.47578C86.9143 6.47578 87.1779 6.44857 87.407 6.39414C87.6362 6.33971 87.874 6.25951 88.1203 6.15352V6.78086C87.8826 6.88685 87.6462 6.96419 87.4113 7.01289C87.1793 7.06159 86.9043 7.08594 86.5863 7.08594C86.1337 7.08594 85.7384 6.99427 85.4004 6.81094C85.0652 6.62474 84.8046 6.3526 84.6184 5.99453C84.4322 5.63646 84.3391 5.19818 84.3391 4.67969C84.3391 4.17266 84.4236 3.73437 84.5926 3.36484C84.7645 2.99245 85.0051 2.70599 85.3145 2.50547C85.6267 2.30495 85.9934 2.20469 86.4145 2.20469ZM86.4059 2.78906C86.0249 2.78906 85.7212 2.91367 85.4949 3.16289C85.2686 3.41211 85.134 3.76016 85.091 4.20703H87.5832C87.5803 3.9263 87.5359 3.67995 87.45 3.46797C87.3669 3.25312 87.2395 3.08698 87.0676 2.96953C86.8957 2.84922 86.6751 2.78906 86.4059 2.78906ZM90.5781 7L88.7906 2.29062H89.5555L90.591 5.13945C90.6626 5.33424 90.7357 5.54909 90.8102 5.78398C90.8846 6.01888 90.9362 6.20794 90.9648 6.35117H90.9949C91.0293 6.20794 91.0866 6.01888 91.1668 5.78398C91.247 5.54622 91.3201 5.33138 91.3859 5.13945L92.4215 2.29062H93.1863L91.3945 7H90.5781Z" fill="#FFFFF5" fill-opacity="0.86"/>
</svg>
