<svg width="73" height="9" viewBox="0 0 73 9" fill="none" xmlns="http://www.w3.org/2000/svg">
<path d="M2.80156 3.60547H4.57188V4.18984H2.80156V6.01172H2.21289V4.18984H0.442578V3.60547H2.21289V1.775H2.80156V3.60547ZM8.12539 7H7.4293V2.54844C7.4293 2.37943 7.4293 2.23477 7.4293 2.11445C7.43216 1.99128 7.43503 1.87956 7.43789 1.7793C7.44362 1.67617 7.45078 1.57161 7.45938 1.46562C7.37057 1.55729 7.2875 1.63607 7.21016 1.70195C7.13281 1.76497 7.03685 1.84375 6.92227 1.93828L6.20469 2.51406L5.83086 2.02852L7.53242 0.717969H8.12539V7ZM12.7102 4.58945C12.7102 4.10534 12.756 3.63411 12.8477 3.17578C12.9422 2.71745 13.0854 2.2806 13.2773 1.86523C13.4693 1.44987 13.7113 1.06745 14.0035 0.717969H14.6867C14.2714 1.26224 13.9591 1.86667 13.75 2.53125C13.5409 3.19583 13.4363 3.87904 13.4363 4.58086C13.4363 5.03919 13.4822 5.4918 13.5738 5.93867C13.6684 6.38268 13.8073 6.81094 13.9906 7.22344C14.1768 7.63594 14.406 8.02552 14.6781 8.39219H14.0035C13.7113 8.04844 13.4693 7.67318 13.2773 7.26641C13.0854 6.8625 12.9422 6.43424 12.8477 5.98164C12.756 5.52904 12.7102 5.06497 12.7102 4.58945ZM17.3723 3.15859C17.7991 3.15859 18.1701 3.23164 18.4852 3.37773C18.8003 3.52096 19.0438 3.73008 19.2156 4.00508C19.3904 4.28008 19.4777 4.6138 19.4777 5.00625C19.4777 5.43594 19.3846 5.8069 19.1984 6.11914C19.0122 6.42852 18.7444 6.66771 18.3949 6.83672C18.0454 7.00286 17.6272 7.08594 17.1402 7.08594C16.8137 7.08594 16.51 7.05729 16.2293 7C15.9486 6.94271 15.7122 6.85677 15.5203 6.74219V6.06328C15.7294 6.18932 15.9829 6.28958 16.2809 6.36406C16.5788 6.43854 16.8681 6.47578 17.1488 6.47578C17.4668 6.47578 17.7447 6.42565 17.9824 6.32539C18.223 6.22227 18.4092 6.06758 18.541 5.86133C18.6757 5.65221 18.743 5.3901 18.743 5.075C18.743 4.65677 18.6141 4.33451 18.3563 4.1082C18.1013 3.87904 17.6974 3.76445 17.1445 3.76445C16.9669 3.76445 16.7721 3.77878 16.5602 3.80742C16.3482 3.83607 16.1734 3.86758 16.0359 3.90195L15.675 3.66562L15.9156 0.717969H19.0395V1.37109H16.5258L16.3668 3.26602C16.4757 3.2431 16.616 3.22018 16.7879 3.19727C16.9598 3.17148 17.1546 3.15859 17.3723 3.15859ZM24.5738 3.85039C24.5738 4.36029 24.5352 4.81576 24.4578 5.2168C24.3805 5.61784 24.2587 5.95729 24.0926 6.23516C23.9264 6.51302 23.7116 6.725 23.448 6.87109C23.1845 7.01432 22.868 7.08594 22.4984 7.08594C22.0315 7.08594 21.6448 6.95846 21.3383 6.70352C21.0346 6.44857 20.8069 6.08047 20.6551 5.59922C20.5061 5.1151 20.4316 4.53216 20.4316 3.85039C20.4316 3.18008 20.499 2.6043 20.6336 2.12305C20.7711 1.63893 20.9917 1.26797 21.2953 1.01016C21.599 0.749479 22 0.61914 22.4984 0.61914C22.9711 0.61914 23.3607 0.748047 23.6672 1.00586C23.9737 1.26081 24.2014 1.63034 24.3504 2.11445C24.4993 2.5957 24.5738 3.17435 24.5738 3.85039ZM21.1492 3.85039C21.1492 4.43477 21.1936 4.92174 21.2824 5.31133C21.3712 5.70091 21.5145 5.9931 21.7121 6.18789C21.9126 6.37982 22.1747 6.47578 22.4984 6.47578C22.8221 6.47578 23.0828 6.37982 23.2805 6.18789C23.481 5.99596 23.6257 5.70521 23.7145 5.31562C23.8061 4.92604 23.852 4.43763 23.852 3.85039C23.852 3.27461 23.8076 2.79336 23.7188 2.40664C23.6299 2.01706 23.4867 1.72487 23.2891 1.53008C23.0914 1.33242 22.8279 1.23359 22.4984 1.23359C22.169 1.23359 21.9055 1.33242 21.7078 1.53008C21.5102 1.72487 21.3669 2.01706 21.2781 2.40664C21.1922 2.79336 21.1492 3.27461 21.1492 3.85039ZM29.5754 7H25.459V6.40273L27.1391 4.69687C27.4513 4.38177 27.7134 4.10104 27.9254 3.85469C28.1402 3.60833 28.3035 3.36628 28.4152 3.12852C28.527 2.88789 28.5828 2.62435 28.5828 2.33789C28.5828 1.98268 28.4768 1.71198 28.2648 1.52578C28.0557 1.33672 27.7793 1.24219 27.4355 1.24219C27.1348 1.24219 26.8684 1.29375 26.6363 1.39687C26.4043 1.5 26.1665 1.64609 25.923 1.83516L25.5406 1.35391C25.7068 1.21354 25.8872 1.08893 26.082 0.980078C26.2797 0.871224 26.4902 0.785286 26.7137 0.722265C26.94 0.659245 27.1806 0.627734 27.4355 0.627734C27.8223 0.627734 28.156 0.695052 28.4367 0.829687C28.7174 0.964323 28.9337 1.15625 29.0855 1.40547C29.2402 1.65469 29.3176 1.95117 29.3176 2.29492C29.3176 2.62721 29.2517 2.93659 29.1199 3.22305C28.9882 3.50664 28.8034 3.7888 28.5656 4.06953C28.3279 4.3474 28.05 4.64245 27.732 4.95469L26.3656 6.3168V6.34687H29.5754V7ZM32.3039 4.58086C32.3039 5.05924 32.2566 5.52617 32.1621 5.98164C32.0704 6.43424 31.9286 6.86393 31.7367 7.2707C31.5477 7.67747 31.3056 8.0513 31.0105 8.39219H30.3359C30.6109 8.02839 30.8401 7.6388 31.0234 7.22344C31.2096 6.80807 31.3486 6.37839 31.4402 5.93437C31.5348 5.4875 31.582 5.0349 31.582 4.57656C31.582 4.10964 31.5348 3.64987 31.4402 3.19727C31.3457 2.74466 31.2053 2.30924 31.0191 1.89102C30.8358 1.47279 30.6052 1.08177 30.3273 0.717969H31.0105C31.3056 1.07031 31.5477 1.45417 31.7367 1.86953C31.9286 2.28203 32.0704 2.71745 32.1621 3.17578C32.2566 3.63125 32.3039 4.09961 32.3039 4.58086ZM35.4406 4.31445C35.4406 3.93633 35.4664 3.5668 35.518 3.20586C35.5724 2.84492 35.6626 2.50977 35.7887 2.20039C35.9147 1.88815 36.0866 1.61458 36.3043 1.37969C36.522 1.14479 36.7927 0.961458 37.1164 0.829687C37.443 0.695052 37.834 0.627734 38.2895 0.627734C38.4184 0.627734 38.5573 0.634896 38.7063 0.649219C38.8552 0.660677 38.9784 0.680729 39.0758 0.709375V1.32383C38.9698 1.28659 38.848 1.25937 38.7105 1.24219C38.5759 1.225 38.4398 1.21641 38.3023 1.21641C37.7695 1.21641 37.3499 1.33242 37.0434 1.56445C36.7397 1.79648 36.5206 2.11159 36.3859 2.50977C36.2513 2.90508 36.174 3.35052 36.1539 3.84609H36.2012C36.29 3.70286 36.4031 3.57396 36.5406 3.45937C36.6781 3.34193 36.8443 3.24883 37.0391 3.18008C37.2367 3.11133 37.4659 3.07695 37.7266 3.07695C38.0932 3.07695 38.4126 3.15143 38.6848 3.30039C38.9598 3.44935 39.1717 3.66562 39.3207 3.94922C39.4725 4.23281 39.5484 4.57656 39.5484 4.98047C39.5484 5.41302 39.4682 5.78685 39.3078 6.10195C39.1474 6.41706 38.9182 6.66055 38.6203 6.83242C38.3253 7.00143 37.9729 7.08594 37.5633 7.08594C37.2568 7.08594 36.9746 7.02721 36.7168 6.90977C36.459 6.79232 36.2341 6.61758 36.0422 6.38555C35.8531 6.15352 35.7056 5.86562 35.5996 5.52187C35.4936 5.17526 35.4406 4.77279 35.4406 4.31445ZM37.5547 6.48437C37.9443 6.48437 38.2565 6.35977 38.4914 6.11055C38.7263 5.86133 38.8438 5.48464 38.8438 4.98047C38.8438 4.56797 38.7392 4.24141 38.5301 4.00078C38.321 3.76016 38.0059 3.63984 37.5848 3.63984C37.2983 3.63984 37.0491 3.7 36.8371 3.82031C36.6251 3.93776 36.4604 4.08672 36.343 4.26719C36.2255 4.44766 36.1668 4.63099 36.1668 4.81719C36.1668 5.00625 36.194 5.19818 36.2484 5.39297C36.3057 5.58776 36.3917 5.76823 36.5063 5.93437C36.6208 6.10052 36.7655 6.23372 36.9402 6.33398C37.115 6.43424 37.3198 6.48437 37.5547 6.48437ZM44.8422 5.54336H43.9012V7H43.2051V5.54336H40.1672V4.9418L43.1578 0.683594H43.9012V4.89883H44.8422V5.54336ZM43.2051 4.89883V2.84492C43.2051 2.68737 43.2065 2.54557 43.2094 2.41953C43.2122 2.29062 43.2165 2.17174 43.2223 2.06289C43.228 1.95117 43.2323 1.84518 43.2352 1.74492C43.2409 1.64466 43.2452 1.54583 43.248 1.44844H43.2137C43.1592 1.56302 43.0962 1.68477 43.0246 1.81367C42.9559 1.93971 42.8857 2.05286 42.8141 2.15312L40.8762 4.89883H43.2051ZM47.4332 3.15859C47.86 3.15859 48.231 3.23164 48.5461 3.37773C48.8612 3.52096 49.1047 3.73008 49.2766 4.00508C49.4513 4.28008 49.5387 4.6138 49.5387 5.00625C49.5387 5.43594 49.4456 5.8069 49.2594 6.11914C49.0732 6.42852 48.8053 6.66771 48.4559 6.83672C48.1064 7.00286 47.6882 7.08594 47.2012 7.08594C46.8746 7.08594 46.571 7.05729 46.2902 7C46.0095 6.94271 45.7732 6.85677 45.5813 6.74219V6.06328C45.7904 6.18932 46.0439 6.28958 46.3418 6.36406C46.6397 6.43854 46.929 6.47578 47.2098 6.47578C47.5277 6.47578 47.8056 6.42565 48.0434 6.32539C48.284 6.22227 48.4702 6.06758 48.602 5.86133C48.7366 5.65221 48.8039 5.3901 48.8039 5.075C48.8039 4.65677 48.675 4.33451 48.4172 4.1082C48.1622 3.87904 47.7583 3.76445 47.2055 3.76445C47.0279 3.76445 46.8331 3.77878 46.6211 3.80742C46.4091 3.83607 46.2344 3.86758 46.0969 3.90195L45.7359 3.66562L45.9766 0.717969H49.1004V1.37109H46.5867L46.4277 3.26602C46.5366 3.2431 46.677 3.22018 46.8488 3.19727C47.0207 3.17148 47.2155 3.15859 47.4332 3.15859ZM50.4023 4.95469V4.31875H52.5336V4.95469H50.4023ZM55.9754 7H55.2793V2.54844C55.2793 2.37943 55.2793 2.23477 55.2793 2.11445C55.2822 1.99128 55.285 1.87956 55.2879 1.7793C55.2936 1.67617 55.3008 1.57161 55.3094 1.46562C55.2206 1.55729 55.1375 1.63607 55.0602 1.70195C54.9828 1.76497 54.8869 1.84375 54.7723 1.93828L54.0547 2.51406L53.6809 2.02852L55.3824 0.717969H55.9754V7ZM62.7859 5.54336H61.8449V7H61.1488V5.54336H58.1109V4.9418L61.1016 0.683594H61.8449V4.89883H62.7859V5.54336ZM61.1488 4.89883V2.84492C61.1488 2.68737 61.1503 2.54557 61.1531 2.41953C61.156 2.29062 61.1603 2.17174 61.166 2.06289C61.1717 1.95117 61.176 1.84518 61.1789 1.74492C61.1846 1.64466 61.1889 1.54583 61.1918 1.44844H61.1574C61.103 1.56302 61.04 1.68477 60.9684 1.81367C60.8996 1.93971 60.8294 2.05286 60.7578 2.15312L58.8199 4.89883H61.1488ZM67.5168 3.39492C67.5168 3.77591 67.4896 4.14687 67.4352 4.50781C67.3836 4.86875 67.2934 5.20534 67.1645 5.51758C67.0384 5.82982 66.8665 6.10339 66.6488 6.33828C66.4311 6.57318 66.1576 6.75794 65.8281 6.89258C65.5016 7.02435 65.1106 7.09023 64.6551 7.09023C64.5319 7.09023 64.3915 7.08164 64.234 7.06445C64.0764 7.05013 63.9475 7.02865 63.8473 7V6.38125C63.9533 6.41849 64.0779 6.44857 64.2211 6.47148C64.3643 6.49154 64.5047 6.50156 64.6422 6.50156C65.1779 6.50156 65.599 6.38698 65.9055 6.15781C66.212 5.92578 66.4326 5.61211 66.5672 5.2168C66.7018 4.81862 66.7777 4.37174 66.7949 3.87617H66.7434C66.6574 4.01367 66.5443 4.14115 66.4039 4.25859C66.2664 4.37318 66.0988 4.46628 65.9012 4.53789C65.7035 4.60664 65.4729 4.64102 65.2094 4.64102C64.8456 4.64102 64.5276 4.56654 64.2555 4.41758C63.9862 4.26862 63.7757 4.05234 63.6238 3.76875C63.4749 3.48516 63.4004 3.14284 63.4004 2.7418C63.4004 2.30924 63.482 1.93542 63.6453 1.62031C63.8115 1.30234 64.0435 1.05742 64.3414 0.885547C64.6393 0.713672 64.9902 0.627734 65.3941 0.627734C65.7035 0.627734 65.9871 0.686458 66.2449 0.803906C66.5027 0.921354 66.7262 1.09753 66.9152 1.33242C67.1072 1.56445 67.2547 1.85234 67.3578 2.19609C67.4638 2.53984 67.5168 2.93945 67.5168 3.39492ZM65.3941 1.23359C65.0132 1.23359 64.7038 1.3582 64.466 1.60742C64.2311 1.85664 64.1137 2.2319 64.1137 2.7332C64.1137 3.14857 64.2154 3.47656 64.4188 3.71719C64.6221 3.95781 64.9358 4.07812 65.3598 4.07812C65.652 4.07812 65.904 4.0194 66.116 3.90195C66.3309 3.78451 66.4956 3.63555 66.6102 3.45508C66.7276 3.27461 66.7863 3.08984 66.7863 2.90078C66.7863 2.71172 66.7577 2.51979 66.7004 2.325C66.646 2.13021 66.5615 1.95117 66.4469 1.78789C66.3323 1.62174 66.1876 1.48854 66.0129 1.38828C65.8382 1.28516 65.6319 1.23359 65.3941 1.23359ZM72.5441 7H68.4277V6.40273L70.1078 4.69687C70.4201 4.38177 70.6822 4.10104 70.8941 3.85469C71.109 3.60833 71.2723 3.36628 71.384 3.12852C71.4957 2.88789 71.5516 2.62435 71.5516 2.33789C71.5516 1.98268 71.4456 1.71198 71.2336 1.52578C71.0245 1.33672 70.748 1.24219 70.4043 1.24219C70.1035 1.24219 69.8371 1.29375 69.6051 1.39687C69.373 1.5 69.1353 1.64609 68.8918 1.83516L68.5094 1.35391C68.6755 1.21354 68.856 1.08893 69.0508 0.980078C69.2484 0.871224 69.459 0.785286 69.6824 0.722265C69.9087 0.659245 70.1494 0.627734 70.4043 0.627734C70.791 0.627734 71.1247 0.695052 71.4055 0.829687C71.6862 0.964323 71.9025 1.15625 72.0543 1.40547C72.209 1.65469 72.2863 1.95117 72.2863 2.29492C72.2863 2.62721 72.2204 2.93659 72.0887 3.22305C71.9569 3.50664 71.7721 3.7888 71.5344 4.06953C71.2966 4.3474 71.0188 4.64245 70.7008 4.95469L69.3344 6.3168V6.34687H72.5441V7Z" fill="#FFFFF5" fill-opacity="0.86"/>
</svg>
